<?xml version="1.0" standalone="no"?>
<!DOCTYPE svg PUBLIC "-//W3C//DTD SVG 1.1//EN" "http://www.w3.org/Graphics/SVG/1.1/DTD/svg11.dtd" >
<svg xmlns="http://www.w3.org/2000/svg">
<metadata></metadata>
<defs>
<font id="superspitzegrotesk-semiboldRg" horiz-adv-x="1136" >
<font-face units-per-em="2048" ascent="1536" descent="-512" />
<missing-glyph horiz-adv-x="512" />
<glyph unicode="&#xfb01;" horiz-adv-x="1132" d="M61 754v196h125v183q0 205 125 310t303 105q137 0 253 -62t153 -169l-184 -90q-49 113 -207 112q-92 0 -158 -60t-65 -175v-154h530l78 -78v-872h-219v754h-389v-754h-220v754h-125z" />
<glyph unicode="&#xfb02;" horiz-adv-x="1179" d="M61 754v196h123v183q0 209 114 312t277 103q49 0 80 -10l-30 -201q-12 2 -31 2q-190 0 -191 -235v-154h152v-196h-152v-754h-219v754h-123zM774 94v1368l72 74h151v-1323h84v-213h-215z" />
<glyph unicode="&#xfb03;" horiz-adv-x="1705" d="M61 754v196h123v183q0 209 114 312t277 103q57 0 89 -12l-70 -197q-190 0 -191 -235v-154h357v183q0 205 125 310t303 105q137 0 253 -62t152 -169l-184 -90q-49 113 -207 112q-92 0 -158 -60t-65 -175v-154h530l78 -78v-872h-219v754h-389v-754h-219v754h-357v-754h-219 v754h-123z" />
<glyph unicode="&#xfb04;" horiz-adv-x="1722" d="M61 754v196h123v183q0 209 114 312t277 103q57 0 89 -12l-70 -197q-190 0 -191 -235v-154h355v183q0 209 113 312q114 103 278 103q49 0 80 -10l-31 -201q-12 2 -31 2q-190 0 -190 -235v-154h151v-196h-151v-754h-219v754h-355v-754h-219v754h-123zM1317 94v1368l72 74 h151v-1323h84v-213h-215z" />
<glyph horiz-adv-x="0" />
<glyph horiz-adv-x="0" />
<glyph horiz-adv-x="682" />
<glyph unicode="&#xd;" horiz-adv-x="681" />
<glyph unicode=" "  horiz-adv-x="512" />
<glyph unicode="&#x09;" horiz-adv-x="512" />
<glyph unicode="&#xa0;" horiz-adv-x="512" />
<glyph unicode="!" horiz-adv-x="741" d="M223 117q0 61 42 105q41 44 103 44t106 -44t44 -105t-44 -103t-105 -43q-61 0 -104 42q-42 43 -42 104zM254 401v1061h233v-1061h-233z" />
<glyph unicode="&#x22;" horiz-adv-x="702" d="M82 995v541h258l-80 -541h-178zM403 995v541h259l-80 -541h-179z" />
<glyph unicode="#" horiz-adv-x="1495" d="M41 408v163h313l86 318h-268v162h311l103 383h157v-76l-81 -307h376l103 383h157v-76l-84 -307h240v-162h-280l-87 -318h236v-163h-279l-110 -408h-158v76l90 332h-377l-110 -408h-158v76l90 332h-270zM532 571h377l84 318h-375z" />
<glyph unicode="$" horiz-adv-x="1292" d="M102 332l191 69q23 -76 99 -127t177 -69v440q-88 29 -150 57q-171 79 -224 201q-33 74 -33 172q0 179 120 285t287 129v139h160v-141q256 -27 381 -205l-158 -137q-65 90 -223 117v-437q84 -25 134 -42t121 -54t110 -79q40 -42 68 -110q28 -66 28 -172t-75 -200 q-131 -164 -386 -193v-157h-160v159q-168 21 -295 113t-172 242zM375 1080q0 -73 50 -121t144 -82v387q-86 -14 -140 -62t-54 -122zM729 201q98 14 168 61t70 127q-1 80 -61 125t-177 82v-395z" />
<glyph unicode="%" horiz-adv-x="1226" d="M61 0v39l943 1423h161v-37l-942 -1425h-162zM66 1200q0 121 84 203t201 82q118 0 201 -82t83 -203t-83 -204t-201 -83q-117 0 -201 83t-84 204zM211 1200q0 -60 41 -102q41 -43 99 -43t99 43q40 43 39 102q0 59 -38 103q-39 43 -99 43t-100 -43q-41 -43 -41 -103z M592 264q0 121 84 203t202 82t200 -82t83 -203q0 -121 -83 -204q-82 -83 -200 -83t-202 83t-84 204zM731 264q1 -64 43 -108q42 -45 104 -45t103 45t41 108q0 62 -41 108t-103 46t-104 -45t-43 -109z" />
<glyph unicode="&#x26;" horiz-adv-x="1642" d="M102 496q0 164 98 297t253 190l-226 266v213h893v-221h-585l538 -655l164 389h295v-199h-152l-143 -354l303 -348v-74h-244l-176 197q-94 -113 -195 -169t-270 -57q-229 0 -391 154t-162 371zM324 475q0 -121 97 -206t225 -84t196 44t123 127l-359 430 q-118 -12 -200 -101t-82 -210z" />
<glyph unicode="'" horiz-adv-x="380" d="M82 995v541h258l-80 -541h-178z" />
<glyph unicode="(" horiz-adv-x="663" d="M113 717q0 334 137 591t325 353l68 -117q-153 -98 -261 -332t-108 -495t109 -495t260 -333l-68 -116q-188 96 -325 353t-137 591z" />
<glyph unicode=")" horiz-adv-x="663" d="M20 -111q152 98 261 332q108 234 108 496t-108 495q-109 233 -261 332l68 117q188 -96 326 -353t137 -591q0 -334 -137 -591t-326 -353z" />
<glyph unicode="*" horiz-adv-x="927" d="M0 1137l53 163l330 -112l-6 350h174l-6 -350l332 115l51 -164l-334 -105l211 -278l-141 -101l-199 289l-199 -291l-141 103l209 278z" />
<glyph unicode="+" horiz-adv-x="1011" d="M61 573v197h347v338h196v-338h346v-197h-346v-340h-196v340h-347z" />
<glyph unicode="," horiz-adv-x="505" d="M-41 -270l178 471h250v-66l-274 -473h-154v68z" />
<glyph unicode="-" horiz-adv-x="847" d="M127 457v196h594v-196h-594z" />
<glyph unicode="." horiz-adv-x="403" d="M41 131q0 66 47 114t113 48q65 0 113 -48t48 -114t-48 -113t-114 -47t-112 47q-47 47 -47 113z" />
<glyph unicode="/" horiz-adv-x="841" d="M31 -25l637 1559h143v-76l-637 -1558h-143v75z" />
<glyph unicode="0" horiz-adv-x="1363" d="M92 702q0 291 142 502q71 104 187 167t261 63q193 0 330 -109q258 -205 259 -623q1 -417 -259 -622q-137 -109 -330 -109q-145 1 -261 63q-216 116 -293 399q-36 128 -36 269zM318 701q0 -205 92 -359t272 -154q123 0 208 80q157 148 157 434q0 287 -157 435 q-85 80 -208 80q-180 0 -272 -155t-92 -361z" />
<glyph unicode="1" horiz-adv-x="655" d="M80 1210v209h391v-1419h-219v1210h-172z" />
<glyph unicode="2" horiz-adv-x="1087" d="M82 0v172l561 647q107 121 107 210t-62 149t-152 61q-89 0 -148 -62q-58 -63 -58 -147q0 -43 16 -80l-209 -82q-33 74 -33 162q0 164 115 284t316 120t321 -112t119 -288q0 -176 -156 -348l-432 -475h617v-211h-922z" />
<glyph unicode="3" horiz-adv-x="1091" d="M51 197l185 118q36 -59 106 -93t166 -34t178 70t82 176t-78 174q-78 70 -192 70t-152 -10l-63 170l376 372h-538v209h833v-178l-385 -389q182 -20 301 -135t119 -297t-146 -316q-146 -133 -351 -133q-154 -1 -269 61t-172 165z" />
<glyph unicode="4" horiz-adv-x="1189" d="M61 279v194l730 946h174v-946h174v-194h-174v-279h-220v279h-684zM295 473h450v606z" />
<glyph unicode="5" horiz-adv-x="1169" d="M92 133q43 68 119 178q137 -123 321 -123q125 0 224 69q98 69 98 194t-98 193t-230 69q-132 0 -245 -58l-140 140l99 624h745v-209h-579l-52 -327q113 43 228 43q207 0 351 -133t144 -346t-143 -345t-399 -133q-121 0 -223 33t-145 65q-44 32 -75 66z" />
<glyph unicode="6" horiz-adv-x="1054" d="M61 438q0 137 64 240l455 741h241l-334 -536q29 6 58 6q178 0 313 -126t135 -323q0 -196 -138 -332t-330 -136q-191 0 -327 136t-137 330zM282 439q0 -101 72 -176q70 -75 172 -75t173 74t71 176t-70 176t-174 74t-174 -74t-70 -175z" />
<glyph unicode="7" horiz-adv-x="993" d="M47 1079v340h946v-209l-678 -1210h-249l684 1210h-484v-131h-219z" />
<glyph unicode="8" horiz-adv-x="1155" d="M102 418q0 111 52 202t139 138q-63 40 -101 116t-38 162q0 168 125 283t300 115t300 -115t125 -283q0 -84 -38 -160t-102 -118q86 -47 137 -138t52 -202q0 -186 -140 -316t-335 -131q-195 0 -335 130t-141 317zM328 419q0 -97 72 -168t177 -71t178 71t73 168t-72 168 t-180 71t-178 -72q-70 -70 -70 -167zM385 1036q-1 -76 55 -132t137 -56t136 56t55 133t-54 132t-136 55t-138 -56t-55 -132z" />
<glyph unicode="9" horiz-adv-x="1046" d="M82 984q0 190 134 320t322 130t323 -130q134 -130 134 -319q0 -121 -75 -248l-451 -737h-242l344 557q-16 -2 -51 -2q-180 0 -309 120t-129 309zM305 985q0 -98 67 -169t167 -71t167 71t66 169q0 98 -66 170q-67 72 -167 72t-167 -72t-67 -170z" />
<glyph unicode=":" horiz-adv-x="505" d="M92 131q0 66 47 114t114 48t114 -48t47 -114t-47 -113t-114 -47t-114 47t-47 113zM92 789q0 67 47 114t114 47t114 -47t47 -114t-47 -113t-114 -47q-67 1 -114 47t-47 113z" />
<glyph unicode=";" horiz-adv-x="581" d="M4 -270l178 471h250v-66l-274 -473h-154v68zM150 787q0 67 47 115t113 48t114 -48q47 -48 47 -115t-47 -113t-114 -47q-68 1 -114 47t-46 113z" />
<glyph unicode="&#x3c;" horiz-adv-x="1011" d="M41 610v125l889 463v-203l-654 -321l654 -324v-203z" />
<glyph unicode="=" horiz-adv-x="1218" d="M164 274v197h889v-197h-889zM164 698v197h889v-197h-889z" />
<glyph unicode="&#x3e;" horiz-adv-x="1011" d="M82 147v203l653 324l-653 321v203l889 -463v-125z" />
<glyph unicode="?" horiz-adv-x="1071" d="M137 1118q0 162 115 268t287 107q173 -1 285 -107t112 -257t-119 -299l-98 -120q-119 -146 -119 -309h-233q0 210 115 366q48 65 97 121q115 134 115 230q0 66 -42 113t-114 47t-118 -48q-45 -48 -45 -112t57 -133l-156 -154q-66 47 -102 131t-37 156zM338 117 q0 61 42 105t103 44t105 -44t45 -105q0 -61 -44 -103q-43 -42 -105 -43q-62 1 -104 43t-42 103z" />
<glyph unicode="@" horiz-adv-x="2086" d="M92 443q0 271 133 495t357 350q224 125 485 125q397 0 663 -279q265 -280 265 -706q0 -207 -35 -315l-113 -113h-497l-68 68q-143 -90 -281 -91q-184 -1 -310 135t-126 338t126 338t310 136q121 0 236 -56l82 82h127v-757h328q20 129 20 235q0 340 -199 570t-531 230 t-550 -230q-219 -230 -219 -555t219 -555t553 -230q217 0 403 113l105 -158q-233 -137 -501 -137t-492 125q-223 125 -357 348q-133 223 -133 494zM764 450q0 -128 64 -208t189 -80q124 0 186 80t63 207q0 127 -65 207t-185 79q-120 0 -187 -79q-65 -78 -65 -206z" />
<glyph unicode="A" horiz-adv-x="1531" d="M41 0l580 1462h290l580 -1462h-256l-125 326h-688l-125 -326h-256zM508 547h516l-258 674z" />
<glyph unicode="B" horiz-adv-x="1382" d="M184 0v1462h531q243 0 363 -116t120 -279q0 -199 -176 -301q248 -104 248 -365q0 -181 -124 -291t-358 -110h-604zM414 221h327q293 0 293 211q0 90 -59 153q-60 62 -187 62h-374v-426zM414 860h307q256 0 256 189q0 84 -67 138t-210 54h-286v-381z" />
<glyph unicode="C" horiz-adv-x="1449" d="M92 732q0 321 221 541t523 220t518 -211l-176 -152q-139 136 -344 136q-204 0 -348 -158t-144 -375t143 -377q144 -159 359 -159t356 155l178 -145q-102 -113 -243 -174t-299 -62q-301 0 -523 220q-221 220 -221 541z" />
<glyph unicode="D" horiz-adv-x="1443" d="M184 0v1462h480q288 0 488 -192t200 -539t-200 -539t-488 -192h-480zM416 223h233q185 0 319 107q69 55 108 157q40 101 40 243q0 279 -148 404q-132 107 -319 107h-233v-1018z" />
<glyph unicode="E" horiz-adv-x="1349" d="M184 0v1462h1053v-221h-823v-373h778v-221h-778v-424h823v-223h-1053z" />
<glyph unicode="F" horiz-adv-x="1249" d="M184 0v1462h963v-221h-731v-410h688v-221h-688v-610h-232z" />
<glyph unicode="G" horiz-adv-x="1632" d="M92 726q0 322 218 544t522 223q304 0 534 -213l-162 -172q-152 158 -368 158t-356 -159t-140 -374t141 -376q142 -160 357 -160q254 0 397 174v184h-303v221h536v-508q-268 -297 -630 -297q-315 0 -531 217q-215 216 -215 538z" />
<glyph unicode="H" horiz-adv-x="1589" d="M184 0v1462h234v-620h753v620h234v-1462h-234v621h-753v-621h-234z" />
<glyph unicode="I" horiz-adv-x="643" d="M205 0v1462h233v-1462h-233z" />
<glyph unicode="J" horiz-adv-x="1085" d="M20 240l197 112q84 -162 225 -162q112 0 172 71t60 192v1009h227v-1013q0 -223 -119 -351q-118 -127 -337 -127h-3q-154 0 -262 71t-160 198z" />
<glyph unicode="K" horiz-adv-x="1359" d="M184 0v1462h236v-712l555 712h299l-490 -608l555 -854h-286l-428 664l-205 -258v-406h-236z" />
<glyph unicode="L" horiz-adv-x="1167" d="M184 0v1462h236v-1239h727v-223h-963z" />
<glyph unicode="M" horiz-adv-x="1894" d="M184 0v1462h238l526 -741l525 741h237v-1462h-231v1073l-451 -641h-162l-446 637v-1069h-236z" />
<glyph unicode="N" horiz-adv-x="1630" d="M184 0v1462h281l747 -1140v1140h234v-1462h-303l-723 1104v-1104h-236z" />
<glyph unicode="O" horiz-adv-x="1712" d="M92 731q0 324 224 543q225 219 540 219q316 0 540 -219t224 -543t-224 -542t-540 -218t-540 218t-224 542zM342 731q0 -219 146 -377q147 -157 368 -157t368 157q146 158 146 377t-146 377t-368 158t-368 -158t-146 -377z" />
<glyph unicode="P" horiz-adv-x="1286" d="M184 0v1462h527q347 0 455 -279q28 -73 28 -149q0 -182 -126 -303t-357 -121h-295v-610h-232zM416 831h280q123 1 200 51t77 144t-68 154t-209 61h-280v-410z" />
<glyph unicode="Q" horiz-adv-x="1753" d="M92 731q0 324 224 543q225 219 539 219q315 0 539 -219t224 -543q0 -248 -139 -442l57 -58h115v-231h-211l-123 123q-203 -152 -463 -152q-315 0 -539 218q-223 218 -223 542zM342 731q0 -219 145 -377q146 -157 367 -157q164 0 297 96l-143 145l163 162l132 -133 q66 119 65 264q0 219 -145 377t-367 158t-368 -158t-146 -377z" />
<glyph unicode="R" horiz-adv-x="1370" d="M184 0v1462h527q347 0 455 -279q28 -73 28 -171t-56 -196q-56 -97 -165 -150l377 -666h-269l-338 610h-327v-610h-232zM416 831h280q123 1 200 51t77 144t-68 154t-209 61h-280v-410z" />
<glyph unicode="S" horiz-adv-x="1421" d="M102 332l213 69q31 -92 149 -148t277 -56t263 77q63 48 63 114q0 124 -178 181q-80 27 -175 51q-96 24 -192 58t-176 79q-80 46 -129 127t-49 191q0 197 163 307t369 111q365 0 529 -211l-176 -137q-49 59 -145 92t-216 33q-119 0 -203 -51q-83 -51 -83 -133t68 -137 q68 -54 168 -79q101 -24 220 -60t220 -77t169 -129t68 -206t-58 -201q-99 -143 -342 -202q-100 -24 -194 -24q-219 1 -393 97t-230 264z" />
<glyph unicode="T" horiz-adv-x="1091" d="M20 1241v221h1051v-221h-407v-1241h-236v1241h-408z" />
<glyph unicode="U" horiz-adv-x="1509" d="M184 590v872h228v-868q0 -201 98 -299t246 -98t246 98t98 299v868h225v-872q0 -305 -156 -462q-155 -157 -413 -157t-415 157t-157 462z" />
<glyph unicode="V" horiz-adv-x="1376" d="M20 1462h259l409 -1194l410 1194h258l-522 -1462h-291z" />
<glyph unicode="W" horiz-adv-x="1937" d="M20 1462h261l415 -1224l150 491l-232 733h228l125 -409l129 409h227l-233 -733l151 -491l416 1224h260l-514 -1462h-305l-129 401l-127 -401h-307z" />
<glyph unicode="X" horiz-adv-x="1261" d="M20 0l463 741l-450 721h274l324 -528l323 528h275l-451 -721l463 -741h-280l-330 537l-330 -537h-281z" />
<glyph unicode="Y" horiz-adv-x="1341" d="M20 1462h275l377 -612l375 612h274l-533 -852v-610h-235v610z" />
<glyph unicode="Z" horiz-adv-x="1327" d="M102 0v213l809 1028h-780v221h1079v-213l-813 -1036h828v-213h-1123z" />
<glyph unicode="[" horiz-adv-x="618" d="M164 -254v1970h434v-151h-274v-1667h274v-152h-434z" />
<glyph unicode="\" horiz-adv-x="841" d="M31 1458v76h143l637 -1559v-75h-143z" />
<glyph unicode="]" horiz-adv-x="618" d="M20 -102h275v1667h-275v151h435v-1970h-435v152z" />
<glyph unicode="^" horiz-adv-x="882" d="M61 868l318 594h125l317 -594h-203l-178 332l-178 -332h-201z" />
<glyph unicode="_" horiz-adv-x="892" d="M61 0h770v-168h-770v168z" />
<glyph unicode="`" horiz-adv-x="1075" d="M299 1374q0 80 78 109q35 10 43 10q61 0 98 -47q101 -119 242 -279l-72 -73q-297 154 -328 168q-61 32 -61 112z" />
<glyph unicode="a" horiz-adv-x="1103" d="M92 297q0 214 222 274q75 20 173 21h218v55q1 61 -57 98t-132 37q-129 0 -176 -94l-184 84q84 201 372 201q162 0 277 -76t115 -223v-461h81v-213h-163l-88 88q-94 -111 -268 -111h-4q-171 0 -278 87q-108 88 -108 233zM299 293q0 -51 47 -91q46 -40 154 -40t162 78 q53 78 53 178h-246q-94 0 -132 -37t-38 -88z" />
<glyph unicode="b" horiz-adv-x="1218" d="M164 0v1462l74 74h145v-678q115 115 276 115q203 -1 345 -147t143 -351q0 -205 -142 -351t-348 -147q-168 0 -276 115l-92 -92h-125zM364 475q0 -121 80 -204t198 -83t200 83t82 204t-82 204t-200 83t-198 -83t-80 -204z" />
<glyph unicode="c" horiz-adv-x="968" d="M72 475q0 207 146 352t349 146q99 0 191 -39t139 -107l-152 -153q-71 88 -183 88t-190 -85t-79 -201q1 -116 79 -202t186 -86t190 91l170 -134q-150 -168 -351 -168h-3q-199 0 -345 145q-147 146 -147 353z" />
<glyph unicode="d" horiz-adv-x="1241" d="M72 475q0 205 142 351t345 147q162 0 277 -115v604l73 74h146v-1323h84v-213h-209l-92 92q-109 -115 -277 -115q-205 1 -347 147t-142 351zM295 475q0 -121 82 -204t200 -83q117 0 197 83t80 204t-80 204t-198 83t-199 -83q-82 -83 -82 -204z" />
<glyph unicode="e" horiz-adv-x="1044" d="M72 474q0 204 133 351t330 147t319 -139q122 -140 129 -335l-82 -80h-608q8 -104 79 -170q70 -66 150 -66q152 0 236 133l180 -98q-62 -104 -164 -172t-235 -68q-201 1 -334 147t-133 350zM303 592h461q-10 80 -74 133t-152 53q-87 0 -153 -52t-82 -134z" />
<glyph unicode="f" horiz-adv-x="645" d="M61 754v196h125v183q0 209 114 312t275 103t275 -82v-45l-115 -114q-61 32 -135 32h-4q-190 0 -190 -235v-154h151v-196h-151v-754h-220v754h-125z" />
<glyph unicode="g" horiz-adv-x="1075" d="M113 -219q1 63 33 125t77 86q-86 66 -86 172t96 184q-79 98 -79 245t110 261q109 113 257 113h3q150 0 254 -88l72 71h121v-196h-97q43 -90 44 -172q0 -160 -112 -272q-111 -111 -268 -111h-3q-90 0 -179 47q-30 -18 -30 -54t19 -58t56 -21h256q143 -1 229 -95t87 -220 q0 -126 -104 -224t-265 -98h-117q-166 0 -270 92t-104 213zM309 -184q0 -60 47 -99t131 -39h117q78 0 122 39t44 85t-30 76t-83 30h-256l-20 -2q-72 -30 -72 -90zM356 582q0 -78 52 -132q51 -53 125 -53h3h3q75 0 125 53q51 54 51 132t-51 131t-128 53t-128 -53 q-52 -53 -52 -131z" />
<glyph unicode="h" horiz-adv-x="1112" d="M164 0v1462l74 74h145v-668q111 96 250 96t237 -98t99 -297v-569h-224v569q0 89 -47 137t-127 48t-134 -43t-54 -107v-604h-219z" />
<glyph unicode="i" horiz-adv-x="546" d="M102 754v196h224l77 -78v-872h-219v754h-82zM121 1335q0 66 46 112t109 46q62 0 110 -46q48 -47 48 -111t-46 -110t-110 -46t-111 44q-46 44 -46 111z" />
<glyph unicode="j" horiz-adv-x="571" d="M-197 -362l191 98q29 -43 87 -43h3q56 0 90 35q35 36 35 102v924h-127v196h268l78 -78v-1036q0 -186 -91 -273t-243 -87q-180 0 -291 162zM137 1335q0 66 46 112q45 46 109 46t111 -46q47 -47 47 -111t-46 -110t-110 -46t-110 44t-47 111z" />
<glyph unicode="k" horiz-adv-x="1091" d="M164 0v1462l72 74h147v-586h547v-127l-213 -260l375 -563h-250l-262 397l-197 -241v-156h-219zM379 438l254 316h-254v-316z" />
<glyph unicode="l" horiz-adv-x="569" d="M154 94v1368l71 74h152v-1323h84v-213h-215z" />
<glyph unicode="m" horiz-adv-x="1695" d="M102 754v196h177l92 -92q133 111 289 111t245 -129q139 129 314 129q141 -1 237 -101t96 -295v-573h-219v573q0 93 -45 143t-126 50t-132 -45t-51 -113v-608h-217v573q0 93 -46 143t-125 50t-132 -43t-53 -109v-614h-220v754h-84z" />
<glyph unicode="n" horiz-adv-x="1132" d="M102 754v196h174l91 -88q133 106 279 106t244 -98t99 -297v-573h-221v573q0 89 -48 137t-128 48t-134 -44t-55 -110v-604h-219v754h-82z" />
<glyph unicode="o" d="M72 475q0 209 146 353q145 143 347 143h3h3q202 0 347 -143q146 -144 147 -353q0 -209 -146 -353q-147 -144 -351 -144t-350 144t-146 353zM374 273q78 -85 194 -85t195 85t79 202t-78 201t-196 84t-196 -84q-77 -83 -77 -198q0 -119 79 -205z" />
<glyph unicode="p" horiz-adv-x="1241" d="M102 754v196h181l106 -108q123 131 309 131q186 -1 329 -147q142 -146 142 -351t-142 -351t-345 -147q-164 0 -276 113v-602h-220v1266h-84zM387 475q0 -121 80 -204t199 -83q118 0 200 83t82 204t-82 204t-200 83t-199 -83q-80 -83 -80 -204z" />
<glyph unicode="q" horiz-adv-x="1218" d="M72 475q0 205 142 351t345 147q158 0 277 -115l92 92h127v-1462h-219v602q-119 -113 -275 -113q-205 1 -347 147t-142 351zM295 475q0 -121 82 -204t200 -83q117 0 197 83t80 204t-80 204t-198 83t-199 -83q-82 -83 -82 -204z" />
<glyph unicode="r" horiz-adv-x="755" d="M102 754v196h177l104 -104q86 123 238 123q49 0 94 -15l-64 -229q-35 12 -87 12t-105 -44t-53 -107v-586h-220v754h-84z" />
<glyph unicode="s" horiz-adv-x="983" d="M82 223l205 62q16 -51 81 -77q66 -26 136 -26t120 25t50 64t-37 55q-71 31 -165 58t-140 49t-100 57q-105 73 -105 205t110 205q111 73 235 73t221 -38t147 -104l-166 -116q-80 65 -162 65t-122 -24t-40 -63q0 -40 56 -67q38 -19 179 -59t228 -108t88 -201 q0 -130 -125 -205q-126 -76 -276 -76q-150 1 -262 61q-113 60 -156 185z" />
<glyph unicode="t" horiz-adv-x="626" d="M61 754v196h123v293l74 74h145v-367h152v-196h-152v-541h84v-213h-208l-95 94v660h-123z" />
<glyph unicode="u" horiz-adv-x="1107" d="M143 414v536h224v-536q0 -109 53 -167q53 -59 135 -59t135 58t53 168v536h222v-536q0 -203 -119 -320t-291 -117t-292 117t-120 320z" />
<glyph unicode="v" horiz-adv-x="1046" d="M31 950h229l264 -717l264 717h228l-365 -950h-254z" />
<glyph unicode="w" horiz-adv-x="1388" d="M31 950h229l232 -708l106 305l-147 403h184l59 -172l60 172h184l-150 -403l109 -307l231 710h230l-320 -950h-237l-107 289l-106 -289h-236z" />
<glyph unicode="x" horiz-adv-x="997" d="M31 0l340 475l-340 475h256l213 -297l211 297h256l-340 -475l340 -475h-256l-211 295l-213 -295h-256z" />
<glyph unicode="y" horiz-adv-x="1073" d="M31 950h221l287 -743h22l258 743h223l-518 -1462h-223l180 512h-90z" />
<glyph unicode="z" horiz-adv-x="940" d="M82 0v166l479 588h-455v196h746v-168l-467 -573h473v-209h-776z" />
<glyph unicode="{" horiz-adv-x="501" d="M92 674v114q94 16 94 152v557q0 103 54 163t137 60q33 0 63 -8l-8 -119q-4 2 -24 2q-20 -1 -40 -27q-22 -26 -22 -71v-557q0 -84 -29 -131t-86 -78q57 -33 86 -80t29 -129v-557q0 -45 22 -71t41 -27q19 0 23 2l8 -119q-31 -8 -63 -8q-82 0 -136 59t-55 164v557 q0 135 -94 152z" />
<glyph unicode="|" horiz-adv-x="548" d="M195 -100v1634h159v-1634h-159z" />
<glyph unicode="}" horiz-adv-x="501" d="M61 -250l9 119q4 -2 24 -2t40 27q22 27 22 71v557q0 82 28 129q29 47 86 80q-57 31 -86 78t-28 131v557q0 45 -22 72t-41 27t-23 -3l-9 119q31 8 64 8q82 0 136 -59t54 -164v-557q1 -136 95 -152v-114q-94 -16 -95 -152v-557q0 -103 -54 -163t-136 -60q-33 0 -64 8z" />
<glyph unicode="~" horiz-adv-x="1046" d="M102 444q0 120 72 186t160 66t198 -49t148 -49q36 0 60 24t24 64h180q0 -112 -63 -184t-160 -72q-63 0 -191 50t-186 50q-74 0 -74 -86h-168z" />
<glyph unicode="&#xa1;" horiz-adv-x="663" d="M45 834q0 62 44 103q43 42 105 42t104 -42t42 -103q0 -62 -42 -106t-103 -44t-106 44q-44 44 -44 106zM76 -512v1061h233v-1061h-233z" />
<glyph unicode="&#xa2;" horiz-adv-x="1030" d="M102 741q0 177 113 313t281 173v155h159v-147q182 -20 273 -141l-152 -154q-53 61 -121 80v-559q70 20 123 84l170 -133q-123 -139 -293 -164v-139h-159v145q-168 37 -281 173t-113 314zM324 742q0 -86 47 -160t125 -107v533q-78 -33 -125 -106t-47 -160z" />
<glyph unicode="&#xa3;" d="M102 578v167h95v127q0 258 144 410t366 152q174 0 335 -88l-88 -195q-116 66 -246 66q-130 -1 -213 -87t-83 -268v-117h264v-167h-264q0 -123 -21 -267l-18 -121h483v111h219v-301h-848l-98 96q67 242 68 482h-95z" />
<glyph unicode="&#xa4;" horiz-adv-x="1198" d="M102 190l142 134q-76 106 -76 238t76 241l-142 135l123 123l135 -143q109 76 237 76t241 -76l135 143l123 -123l-144 -135q78 -107 78 -237t-76 -242l142 -134l-123 -122l-133 139q-113 -76 -241 -76t-241 76l-133 -139zM352 563q0 -100 74 -173t173 -73t172 74t73 173 t-73 172t-172 73t-173 -73t-74 -173z" />
<glyph unicode="&#xa5;" horiz-adv-x="1341" d="M20 1462h275l377 -612l375 612h274l-475 -729h266v-170h-324v-74h324v-163h-324v-326h-235v326h-330v163h330v74h-330v170h273z" />
<glyph unicode="&#xa6;" horiz-adv-x="548" d="M195 -102v626l129 129h30v-755h-159zM195 780v756h159v-627l-129 -129h-30z" />
<glyph unicode="&#xa7;" horiz-adv-x="1163" d="M123 637q-1 182 192 278q-117 87 -117 257t112 267t256 97t263 -85t144 -263l-221 -25q-10 76 -64 114t-118 38t-108 -34q-44 -33 -44 -105t64 -129t156 -97q91 -40 182 -84t156 -112q64 -68 64 -151t-34 -145t-65 -89q-32 -27 -83 -64q106 -96 106 -256t-109 -257 q-111 -97 -267 -97t-272 96t-115 254q0 84 55 150l203 -58q-31 -35 -31 -93t49 -98q49 -38 111 -38h4q66 2 110 39t43 109q0 72 -64 128q-65 58 -156 98t-182 83t-156 111t-64 161zM342 684q0 -51 38 -91t84 -65q46 -26 130 -64t131 -67q41 13 69 55t28 94t-40 91 q-39 39 -85 63t-129 65q-83 40 -130 66q-40 -10 -68 -53t-28 -94z" />
<glyph unicode="&#xa8;" horiz-adv-x="1054" d="M160 1266q0 61 42 105t103 44t105 -44t45 -105q0 -60 -44 -104q-43 -44 -105 -44t-104 44t-42 104zM600 1266q0 61 42 105t103 44t105 -44t45 -105q0 -60 -44 -104q-43 -44 -105 -44t-104 44t-42 104z" />
<glyph unicode="&#xa9;" horiz-adv-x="1646" d="M92 731q0 303 214 517t517 214t517 -214t214 -517t-214 -517t-517 -214t-517 214t-214 517zM252 731q0 -235 167 -403t405 -168t404 168q167 168 167 404t-167 403q-167 168 -405 168q-239 0 -405 -168t-166 -404zM444 730q0 169 120 289t288 120q82 0 157 -32t113 -87 l-125 -127q-55 72 -147 72t-158 -70t-66 -164t66 -165q66 -70 155 -70t152 73l140 -110q-123 -137 -287 -137t-286 120t-122 288z" />
<glyph unicode="&#xaa;" horiz-adv-x="888" d="M82 935q0 103 66 174q67 71 249 73h146v35q0 39 -33 61t-82 22q-88 0 -119 -71l-176 96q68 160 297 160q127 -1 218 -61t91 -177v-348h68v-188h-158l-55 55q-68 -72 -205 -72t-222 69t-85 172zM284 946q0 -32 32 -56q31 -24 92 -24q141 0 141 160h-158q-49 0 -78 -24 t-29 -56z" />
<glyph unicode="&#xab;" horiz-adv-x="1097" d="M61 516l363 424h154v-68l-246 -356l246 -356v-68h-154zM500 516l362 424h154v-68l-246 -356l246 -356v-68h-154z" />
<glyph unicode="&#xac;" horiz-adv-x="1347" d="M82 698v197h1163v-518h-196v321h-967z" />
<glyph unicode="&#xad;" horiz-adv-x="847" d="M127 457v196h594v-196h-594z" />
<glyph unicode="&#xae;" horiz-adv-x="1646" d="M92 731q0 303 214 517t517 214t517 -214t214 -517t-214 -517t-517 -214t-517 214t-214 517zM252 731q0 -235 167 -403t405 -168t404 168q167 168 167 404t-167 403q-167 168 -405 168q-239 0 -405 -168t-166 -404zM530 311v819h324q162 0 238 -79q75 -80 75 -193 q0 -158 -129 -227l129 -269v-51h-151l-129 283h-197v-283h-160zM690 752h187q55 0 93 32t38 80q0 49 -38 81t-93 32h-187v-225z" />
<glyph unicode="&#xaf;" horiz-adv-x="1452" d="M440 1630v164h576v-164h-576z" />
<glyph unicode="&#xb0;" horiz-adv-x="679" d="M41 1164q0 122 89 210t210 88t210 -88t89 -210t-89 -211t-210 -89t-210 89t-89 211zM215 1164q0 -50 37 -87t87 -37t87 37t37 87t-37 87t-87 37t-87 -37t-37 -87z" />
<glyph unicode="&#xb1;" horiz-adv-x="1011" d="M61 0v197h889v-197h-889zM61 662v196h347v338h196v-338h346v-196h-346v-340h-196v340h-347z" />
<glyph unicode="&#xb2;" horiz-adv-x="608" d="M41 1178q0 106 65 177q66 70 184 70q118 -1 188 -71t71 -164q0 -94 -92 -199l-166 -188h260v-150h-494v121l262 287q72 78 72 118q1 41 -25 69t-75 28t-72 -25t-23 -67t29 -70l-102 -104q-82 62 -82 168z" />
<glyph unicode="&#xb3;" horiz-adv-x="628" d="M59 764l107 102q18 -31 57 -49t85 -18q46 1 79 31t33 69t-33 68t-82 29t-78 -9l-45 105l168 184h-239v143h432v-129l-168 -178q84 -4 147 -68q64 -64 64 -170q0 -108 -80 -170t-209 -63q-79 0 -145 36t-93 87z" />
<glyph unicode="&#xb4;" horiz-adv-x="1075" d="M270 1167q23 25 244 279q37 47 98 47q6 0 42 -11t56 -44t21 -68q0 -80 -59 -108l-328 -168z" />
<glyph unicode="&#xb5;" horiz-adv-x="1150" d="M143 -512v1462h224v-536q0 -109 53 -167q53 -59 135 -59t135 58t53 168v536h222v-737h84v-213h-166l-84 84q-94 -106 -244 -107q-100 0 -188 60v-549h-224z" />
<glyph unicode="&#xb6;" horiz-adv-x="1089" d="M61 1067q0 162 117 279t279 116h149v-1716h-149v928q-164 0 -280 116t-116 277zM733 -254v1716h275v-141h-125v-1575h-150z" />
<glyph unicode="&#xb7;" horiz-adv-x="468" d="M74 517q0 67 47 115t113 48t114 -48q47 -48 47 -115t-47 -114t-114 -47q-68 0 -114 47t-46 114z" />
<glyph unicode="&#xb8;" horiz-adv-x="620" d="M27 -350q1 0 69 24t76 31q18 -66 86 -65q34 0 58 18t24 49q0 78 -90 78l-29 -2l-61 96l22 191h203l-43 -150q80 -8 134 -66t54 -152t-74 -162q-74 -66 -176 -66q-100 0 -168 45t-85 131z" />
<glyph unicode="&#xb9;" horiz-adv-x="540" d="M94 653v144h94v479h-75v143h252v-622h81v-144h-352z" />
<glyph unicode="&#xba;" horiz-adv-x="956" d="M82 1090q0 166 116 280t280 115q163 0 280 -115q116 -114 116 -280t-116 -281t-280 -115t-280 115t-116 281zM270 1090q0 -90 60 -155t149 -65q88 0 149 66q60 66 60 155t-60 153t-148 65q-88 0 -149 -65q-61 -64 -61 -154z" />
<glyph unicode="&#xbb;" horiz-adv-x="1097" d="M82 92v68l246 356l-246 356v68h154l362 -424l-362 -424h-154zM520 92v68l246 356l-246 356v68h154l362 -424l-362 -424h-154z" />
<glyph unicode="&#xbc;" horiz-adv-x="1429" d="M92 0v20l1090 1442h178v-22l-1090 -1440h-178zM94 653v144h94v479h-75v143h252v-622h81v-144h-352zM641 115v75l412 576h192v-528h70v-123h-70v-115h-172v115h-432zM838 238h235v337z" />
<glyph unicode="&#xbd;" horiz-adv-x="1431" d="M92 0v20l1090 1442h178v-22l-1090 -1440h-178zM94 653v144h94v479h-75v143h252v-622h81v-144h-352zM905 525q-1 107 65 177t184 70t188 -71t71 -165q0 -94 -92 -198l-166 -188h260v-150h-493v121l262 287q72 78 72 118t-26 68q-26 29 -75 29t-72 -25q-23 -24 -23 -66 t30 -71l-103 -105q-82 63 -82 169z" />
<glyph unicode="&#xbe;" horiz-adv-x="1437" d="M53 764l107 102q18 -31 57 -49t85 -18q46 1 79 31t33 69t-33 68t-82 29t-78 -9l-45 105l168 184h-240v143h433v-129l-168 -178q84 -4 147 -68q64 -64 64 -170q0 -108 -80 -170t-209 -63q-80 0 -146 36t-92 87zM127 0v20l1090 1442h178v-22l-1090 -1440h-178zM676 115v75 l411 576h193v-528h70v-123h-70v-115h-172v115h-432zM872 238h236v337z" />
<glyph unicode="&#xbf;" horiz-adv-x="993" d="M-23 -160q0 152 119 298q48 60 98 120q120 147 119 309h234q0 -111 -34 -206t-82 -159t-96 -121q-116 -135 -116 -231q0 -66 42 -112t115 -47q73 0 118 48t45 111t-58 134l156 153q67 -47 103 -130t36 -157q0 -162 -114 -268t-287 -106q-172 0 -285 106t-113 258z M281 852q0 62 44 103q44 42 105 42t103 -42t42 -103t-41 -106q-42 -44 -104 -44t-105 44q-44 44 -44 106z" />
<glyph unicode="&#xc0;" horiz-adv-x="1531" d="M41 0l580 1462h290l580 -1462h-256l-125 326h-688l-125 -326h-256zM508 547h516l-258 674zM537 1828q0 81 77 109q35 10 43 11q61 0 99 -47q100 -119 241 -279l-71 -74q-297 154 -328 168q-61 31 -61 112z" />
<glyph unicode="&#xc1;" horiz-adv-x="1531" d="M41 0l580 1462h290l580 -1462h-256l-125 326h-688l-125 -326h-256zM508 547h516l-258 674zM535 1622q23 25 243 279q37 47 99 47q8 0 43 -12t55 -44q20 -33 20 -67q0 -80 -59 -109l-328 -168z" />
<glyph unicode="&#xc2;" horiz-adv-x="1531" d="M41 0l580 1462h290l580 -1462h-256l-125 326h-688l-125 -326h-256zM479 1610l197 305h180l197 -305l-97 -60l-190 222l-191 -222zM508 547h516l-258 674z" />
<glyph unicode="&#xc3;" horiz-adv-x="1531" d="M41 0l580 1462h290l580 -1462h-256l-125 326h-688l-125 -326h-256zM377 1722q5 20 28 57q74 121 218 124q59 0 164 -44t147 -44t68 17q28 17 38 36l13 16l108 -61q-6 -22 -28 -61q-76 -128 -209 -130q-68 0 -179 45t-153 45t-69 -17q-28 -17 -36 -36l-6 -18zM508 547h516 l-258 674z" />
<glyph unicode="&#xc4;" horiz-adv-x="1531" d="M41 0l580 1462h290l580 -1462h-256l-125 326h-688l-125 -326h-256zM399 1749q0 61 42 105q41 44 103 44t106 -44t44 -105t-44 -104t-105 -43t-104 43q-42 43 -42 104zM508 547h516l-258 674zM840 1749q0 61 42 105t103 44t105 -44t45 -105q0 -61 -44 -104 q-43 -43 -105 -43t-104 43t-42 104z" />
<glyph unicode="&#xc5;" horiz-adv-x="1531" d="M41 0l557 1405q-68 68 -68 164t70 166q70 69 166 69t166 -70t70 -163q0 -94 -68 -166l557 -1405h-256l-125 326h-688l-125 -326h-256zM506 547h518l-258 674zM657 1570q0 -44 32 -76t77 -32t77 32q31 32 31 76t-31 76q-32 32 -77 32t-77 -32t-32 -76z" />
<glyph unicode="&#xc6;" horiz-adv-x="1888" d="M41 0l537 1462h1198v-221h-828l137 -373h646v-221h-564l156 -424h453v-223h-611l-135 369h-614l-135 -369h-240zM498 592h450l-225 618z" />
<glyph unicode="&#xc7;" horiz-adv-x="1449" d="M92 746q0 306 221 527q221 220 523 220t518 -211l-176 -152q-139 136 -344 136q-204 0 -348 -158t-144 -375t143 -377t359 -160t356 156l178 -145q-182 -199 -454 -230l-17 -57q80 -8 134 -66q55 -58 55 -152t-75 -162q-75 -66 -175 -66t-168 45t-86 131q2 0 70 24t75 31 q18 -66 86 -65q33 0 58 18q24 18 24 49q0 78 -90 78l-29 -2l-61 96l10 101q-270 36 -456 248q-187 212 -187 518z" />
<glyph unicode="&#xc8;" horiz-adv-x="1349" d="M184 0v1462h1053v-221h-823v-373h778v-221h-778v-424h823v-223h-1053zM444 1828q0 81 78 109q37 10 43 11q61 0 99 -47q100 -119 241 -279l-71 -74q-297 154 -328 168q-62 31 -62 112z" />
<glyph unicode="&#xc9;" horiz-adv-x="1349" d="M184 0v1462h1053v-221h-823v-373h778v-221h-778v-424h823v-223h-1053zM444 1622q23 25 244 279q37 47 98 47q8 0 43 -12t55 -44q20 -33 21 -67q0 -80 -59 -109l-328 -168z" />
<glyph unicode="&#xca;" horiz-adv-x="1349" d="M184 0v1462h1053v-221h-823v-373h778v-221h-778v-424h823v-223h-1053zM389 1610l197 305h180l197 -305l-97 -60l-190 222l-191 -222z" />
<glyph unicode="&#xcb;" horiz-adv-x="1349" d="M184 0v1462h1053v-221h-823v-373h778v-221h-778v-424h823v-223h-1053zM352 1749q0 61 42 105t104 44t105 -44q44 -44 44 -105t-44 -104t-105 -43t-104 43q-42 43 -42 104zM793 1749q0 61 42 105t103 44t105 -44t44 -105t-44 -104t-105 -43t-103 43t-42 104z" />
<glyph unicode="&#xcc;" horiz-adv-x="645" d="M90 1828q0 81 78 109q37 10 43 11q61 0 98 -47q101 -119 242 -279l-72 -74q-297 154 -327 168q-62 31 -62 112zM205 0v1462h235v-1462h-235z" />
<glyph unicode="&#xcd;" horiz-adv-x="645" d="M96 1622q23 25 244 279q37 47 98 47q8 0 43 -12t55 -44q20 -33 21 -67q0 -80 -59 -109l-328 -168zM205 0v1462h235v-1462h-235z" />
<glyph unicode="&#xce;" horiz-adv-x="645" d="M37 1610l196 305h181l196 -305l-96 -60l-190 222l-191 -222zM205 0v1462h235v-1462h-235z" />
<glyph unicode="&#xcf;" horiz-adv-x="645" d="M-41 1749q0 61 42 105t103 44q62 0 106 -44t44 -105t-44 -104t-106 -43t-103 43q-42 43 -42 104zM205 0v1462h235v-1462h-235zM399 1749q0 61 42 105q41 44 103 44t106 -44t44 -105t-44 -104t-105 -43t-104 43q-42 43 -42 104z" />
<glyph unicode="&#xd0;" horiz-adv-x="1443" d="M55 664v182h131v616h478q186 0 340 -80t250 -248t98 -403q0 -347 -199 -539t-489 -192h-478v664h-131zM416 223h233q185 0 319 107q69 55 108 157q40 101 40 243q0 279 -148 404q-132 107 -319 107h-233v-395h278v-182h-278v-441z" />
<glyph unicode="&#xd1;" horiz-adv-x="1630" d="M184 0v1462h281l747 -1140v1140h234v-1462h-303l-723 1104v-1104h-236zM414 1722q5 19 27 57q23 37 48 61t71 43t102 19t162 -43q106 -44 146 -44q42 0 70 17t37 36l13 16l108 -61q-6 -22 -28 -61q-76 -128 -209 -130q-68 0 -179 45q-110 45 -152 45t-70 -17t-36 -36 l-6 -18z" />
<glyph unicode="&#xd2;" horiz-adv-x="1712" d="M92 731q0 324 224 543q225 219 540 219q316 0 540 -219t224 -543t-224 -542t-540 -218t-540 218t-224 542zM342 731q0 -219 146 -377q147 -157 368 -157t368 157q146 158 146 377t-146 377t-368 158t-368 -158t-146 -377zM625 1828q0 81 77 109q35 10 43 11q61 0 99 -47 q100 -119 241 -279l-71 -74q-297 154 -328 168q-61 31 -61 112z" />
<glyph unicode="&#xd3;" horiz-adv-x="1712" d="M92 731q0 324 224 543q225 219 540 219q316 0 540 -219t224 -543t-224 -542t-540 -218t-540 218t-224 542zM342 731q0 -219 146 -377q147 -157 368 -157t368 157q146 158 146 377t-146 377t-368 158t-368 -158t-146 -377zM625 1622q23 25 243 279q37 47 99 47q8 0 43 -12 t55 -44q20 -33 20 -67q0 -80 -59 -109l-328 -168z" />
<glyph unicode="&#xd4;" horiz-adv-x="1712" d="M92 731q0 324 224 543q225 219 540 219q316 0 540 -219t224 -543t-224 -542t-540 -218t-540 218t-224 542zM342 731q0 -219 146 -377q147 -157 368 -157t368 157q146 158 146 377t-146 377t-368 158t-368 -158t-146 -377zM569 1610l197 305h180l197 -305l-96 -60 l-191 222l-190 -222z" />
<glyph unicode="&#xd5;" horiz-adv-x="1712" d="M92 731q0 324 224 543q225 219 540 219q316 0 540 -219t224 -543t-224 -542t-540 -218t-540 218t-224 542zM342 731q0 -219 146 -377q147 -157 368 -157t368 157q146 158 146 377t-146 377t-368 158t-368 -158t-146 -377zM465 1722q5 20 28 57q74 121 218 124 q59 0 165 -44t146 -44q41 0 69 17t39 36l11 16l108 -61q-5 -21 -31 -66q-70 -123 -214 -125q-60 0 -172 45t-152 45q-41 0 -69 -17t-33 -36l-9 -18z" />
<glyph unicode="&#xd6;" horiz-adv-x="1712" d="M92 731q0 324 224 543q225 219 540 219q316 0 540 -219t224 -543t-224 -542t-540 -218t-540 218t-224 542zM342 731q0 -219 146 -377q147 -157 368 -157t368 157q146 158 146 377t-146 377t-368 158t-368 -158t-146 -377zM487 1749q0 61 42 105q41 44 103 44t106 -44 t44 -105t-44 -104t-105 -43t-104 43q-42 43 -42 104zM928 1749q0 61 42 105t103 44t105 -44t45 -105q0 -61 -44 -104q-43 -43 -105 -43t-104 43t-42 104z" />
<glyph unicode="&#xd7;" horiz-adv-x="970" d="M102 420l248 250l-248 250l134 133l249 -250l248 250l135 -133l-250 -250l250 -250l-133 -133l-250 248l-249 -248z" />
<glyph unicode="&#xd8;" horiz-adv-x="1712" d="M92 734q0 320 224 540q225 219 540 219q248 0 447 -141l94 110h182l-172 -200q213 -219 213 -537t-224 -536t-540 -218q-244 0 -436 133l-88 -104h-182l163 193q-221 221 -221 541zM342 739q0 -211 127 -364l682 796q-129 94 -295 95q-222 0 -368 -158t-146 -369z M571 283q125 -86 285 -86q221 0 368 157q146 158 146 366t-121 357z" />
<glyph unicode="&#xd9;" horiz-adv-x="1509" d="M184 590v872h228v-868q0 -201 98 -299t246 -98t246 98t98 299v868h225v-872q0 -305 -156 -462q-155 -157 -413 -157t-415 157t-157 462zM524 1828q0 81 78 109q37 10 43 11q61 0 98 -47q101 -119 242 -279l-72 -74q-297 154 -327 168q-62 31 -62 112z" />
<glyph unicode="&#xda;" horiz-adv-x="1509" d="M184 590v872h228v-868q0 -201 98 -299t246 -98t246 98t98 299v868h225v-872q0 -305 -156 -462q-155 -157 -413 -157t-415 157t-157 462zM526 1622q23 25 244 279q37 47 98 47q8 0 43 -12t55 -44q20 -33 21 -67q0 -80 -59 -109l-328 -168z" />
<glyph unicode="&#xdb;" horiz-adv-x="1509" d="M184 590v872h228v-868q0 -201 98 -299t246 -98t246 98t98 299v868h225v-872q0 -305 -156 -462q-155 -157 -413 -157t-415 157t-157 462zM469 1610l197 305h180l196 -305l-96 -60l-190 222l-191 -222z" />
<glyph unicode="&#xdc;" horiz-adv-x="1509" d="M184 590v872h228v-868q0 -201 98 -299t246 -98t246 98t98 299v868h225v-872q0 -305 -156 -462q-155 -157 -413 -157t-415 157t-157 462zM389 1749q0 61 42 105q41 44 103 44t106 -44t44 -105t-44 -104t-105 -43t-104 43q-42 43 -42 104zM829 1749q0 61 42 105 q41 44 103 44t106 -44t44 -105t-44 -104t-105 -43t-104 43q-42 43 -42 104z" />
<glyph unicode="&#xdd;" horiz-adv-x="1341" d="M20 1462h275l377 -612l375 612h274l-533 -852v-610h-235v610zM440 1622q23 25 244 279q37 47 98 47q8 0 43 -12t55 -44q20 -33 21 -67q0 -80 -59 -109l-328 -168z" />
<glyph unicode="&#xde;" horiz-adv-x="1286" d="M184 0v1462h232v-313h295q125 0 222 -39q97 -40 151 -104q110 -131 110 -299t-126 -289t-357 -121h-295v-297h-232zM416 520h280q123 0 200 49t77 143t-68 156q-68 60 -209 60h-280v-408z" />
<glyph unicode="&#xdf;" horiz-adv-x="1181" d="M76 754v196h110v183q0 195 122 305t272 110t258 -74q109 -74 147 -206l-176 -86q-23 76 -81 116t-131 41q-73 0 -131 -54t-58 -152v-183h628v-180l-217 -227q125 -25 208 -91t83 -193q0 -126 -112 -204t-257 -78q-94 0 -188 37l51 179q78 -17 136 -17t106 27q49 27 49 73 q1 46 -63 81q-64 36 -187 36l-51 172l176 189h-364v-754h-220v754h-110z" />
<glyph unicode="&#xe0;" horiz-adv-x="1103" d="M92 297q0 214 222 274q75 20 173 21h218v55q1 61 -57 98t-132 37q-129 0 -176 -94l-184 84q84 201 372 201q162 0 277 -76t115 -223v-461h81v-213h-163l-88 88q-94 -111 -268 -111q-174 -1 -282 87t-108 233zM299 293q0 -51 47 -91q46 -40 154 -40t162 78q53 78 53 178 h-246q-94 0 -132 -37t-38 -88zM301 1374q0 80 78 109q37 10 43 10q61 0 98 -47q101 -119 242 -279l-72 -73q-297 154 -328 168q-61 32 -61 112z" />
<glyph unicode="&#xe1;" horiz-adv-x="1103" d="M92 297q0 214 222 274q75 20 173 21h218v55q1 61 -57 98t-132 37q-129 0 -176 -94l-184 84q84 201 372 201q162 0 277 -76t115 -223v-461h81v-213h-163l-88 88q-94 -111 -268 -111q-174 -1 -282 87t-108 233zM299 293q0 -51 47 -91q46 -40 154 -40t162 78q53 78 53 178 h-246q-94 0 -132 -37t-38 -88zM303 1167q23 25 244 279q37 47 98 47q6 0 42 -11t56 -44t21 -68q0 -80 -59 -108l-328 -168z" />
<glyph unicode="&#xe2;" horiz-adv-x="1103" d="M92 297q0 214 222 274q75 20 173 21h218v55q1 61 -57 98t-132 37q-129 0 -176 -94l-184 84q84 201 372 201q162 0 277 -76t115 -223v-461h81v-213h-163l-88 88q-94 -111 -268 -111q-174 -1 -282 87t-108 233zM246 1157l196 305h181l196 -305l-96 -59l-191 221l-190 -221z M299 293q0 -51 47 -91q46 -40 154 -40t162 78q53 78 53 178h-246q-94 0 -132 -37t-38 -88z" />
<glyph unicode="&#xe3;" horiz-adv-x="1103" d="M92 297q0 214 222 274q75 20 173 21h218v55q1 61 -57 98t-132 37q-129 0 -176 -94l-184 84q84 201 372 201q162 0 277 -76t115 -223v-461h81v-213h-163l-88 88q-94 -111 -268 -111q-174 -1 -282 87t-108 233zM143 1210q4 16 27 55q24 39 49 63t71 43t102 19t162 -43 q106 -44 146 -44q42 0 70 17t37 36l12 16l109 -61q-6 -22 -32 -66q-70 -123 -214 -125q-60 0 -170 45t-153 45q-41 0 -69 -17t-36 -36l-6 -18zM299 293q0 -51 47 -91q46 -40 154 -40t162 78q53 78 53 178h-246q-94 0 -132 -37t-38 -88z" />
<glyph unicode="&#xe4;" horiz-adv-x="1103" d="M92 297q0 214 222 274q75 20 173 21h218v55q1 61 -57 98t-132 37q-129 0 -176 -94l-184 84q84 201 372 201q162 0 277 -76t115 -223v-461h81v-213h-163l-88 88q-94 -111 -268 -111q-174 -1 -282 87t-108 233zM172 1266q0 61 42 105t103 44t105 -44t45 -105 q0 -60 -44 -104q-43 -44 -105 -44t-104 44t-42 104zM299 293q0 -51 47 -91q46 -40 154 -40t162 78q53 78 53 178h-246q-94 0 -132 -37t-38 -88zM612 1266q0 61 42 105t104 44t105 -44q44 -44 44 -105q0 -60 -44 -104t-105 -44t-104 43q-42 44 -42 105z" />
<glyph unicode="&#xe5;" horiz-adv-x="1103" d="M92 297q0 214 222 274q75 20 173 21h218v55q1 61 -57 98t-132 37q-129 0 -176 -94l-184 84q84 201 372 201q162 0 277 -76t115 -223v-461h81v-213h-163l-88 88q-94 -111 -268 -111q-174 -1 -282 87t-108 233zM297 1305q0 93 69 161q70 68 162 68t161 -68t69 -162 t-69 -162q-69 -69 -162 -69t-161 69t-69 163zM299 293q0 -51 47 -91q46 -40 154 -40t162 78q53 78 53 178h-246q-94 0 -132 -37t-38 -88zM420 1305q0 -43 32 -74t74 -31t75 31q32 31 32 74t-32 75t-75 31q-42 1 -74 -31t-32 -75z" />
<glyph unicode="&#xe6;" horiz-adv-x="1642" d="M92 297q0 214 222 274q75 20 173 21h218v55q1 61 -57 98t-132 37q-129 0 -176 -94l-184 84q84 201 372 201q207 0 314 -109q128 109 308 109t304 -140t127 -335l-80 -80h-610q8 -104 79 -170q70 -66 150 -66q152 0 236 133l180 -98q-62 -104 -164 -172t-212 -68t-204 42 q-96 42 -155 102q-115 -143 -305 -143t-296 86q-108 88 -108 233zM299 293q0 -51 47 -91q46 -40 154 -40t162 78q53 78 53 178h-246q-94 0 -132 -37t-38 -88zM901 592h463q-10 80 -76 133t-152 53q-87 0 -153 -52t-82 -134z" />
<glyph unicode="&#xe7;" horiz-adv-x="968" d="M72 475q0 207 146 352t349 146q99 0 191 -39t139 -107l-152 -153q-71 88 -183 88t-190 -85t-79 -201q0 -116 79 -202t187 -86t189 91l170 -134q-121 -137 -287 -161l-17 -64q80 -8 134 -66t55 -152q0 -94 -75 -162q-75 -66 -175 -66t-168 45t-86 131q2 0 70 24t75 31 q18 -66 86 -65q33 0 58 18q24 18 24 49q0 78 -90 78l-28 -2l-62 96l12 115q-160 43 -266 176t-106 305z" />
<glyph unicode="&#xe8;" horiz-adv-x="1044" d="M72 474q0 204 133 351t330 147t319 -139q122 -140 129 -335l-82 -80h-608q8 -104 79 -170q70 -66 150 -66q152 0 236 133l180 -98q-62 -104 -164 -172t-235 -68q-201 1 -334 147t-133 350zM303 592h461q-10 80 -74 133t-152 53q-87 0 -153 -52t-82 -134zM304 1374 q0 80 77 109q35 10 43 10q61 0 98 -47q101 -119 242 -279l-72 -73q-297 154 -327 168q-61 32 -61 112z" />
<glyph unicode="&#xe9;" horiz-adv-x="1044" d="M72 474q0 204 133 351t330 147t319 -139q122 -140 129 -335l-82 -80h-608q8 -104 79 -170q70 -66 150 -66q152 0 236 133l180 -98q-62 -104 -164 -172t-235 -68q-201 1 -334 147t-133 350zM289 1167q23 25 243 279q37 47 99 47q8 0 43 -11t55 -44t21 -68q0 -80 -60 -108 l-328 -168zM303 592h461q-10 80 -74 133t-152 53q-87 0 -153 -52t-82 -134z" />
<glyph unicode="&#xea;" horiz-adv-x="1044" d="M72 474q0 204 133 351t330 147t319 -139q122 -140 129 -335l-82 -80h-608q8 -104 79 -170q70 -66 150 -66q152 0 236 133l180 -98q-62 -104 -164 -172t-235 -68q-201 1 -334 147t-133 350zM223 1157l197 305h180l197 -305l-97 -59l-190 221l-191 -221zM303 592h461 q-10 80 -74 133t-152 53q-87 0 -153 -52t-82 -134z" />
<glyph unicode="&#xeb;" horiz-adv-x="1044" d="M72 474q0 204 133 351t330 147t319 -139q122 -140 129 -335l-82 -80h-608q8 -104 79 -170q70 -66 150 -66q152 0 236 133l180 -98q-62 -104 -164 -172t-235 -68q-201 1 -334 147t-133 350zM178 1266q0 61 42 105t104 44t105 -44q44 -44 44 -105q0 -60 -44 -104t-105 -44 t-104 43q-42 44 -42 105zM303 592h461q-10 80 -74 133t-152 53q-87 0 -153 -52t-82 -134zM618 1266q0 61 42 105t104 44t105 -44q44 -44 44 -105q0 -60 -44 -104t-105 -44t-104 43q-42 44 -42 105z" />
<glyph unicode="&#xec;" horiz-adv-x="546" d="M8 1374q0 80 78 109q37 10 43 10q61 0 98 -47q101 -119 242 -279l-72 -73q-297 154 -327 168q-62 32 -62 112zM100 754v196h226l77 -78v-872h-219v754h-84z" />
<glyph unicode="&#xed;" horiz-adv-x="546" d="M8 1167q23 25 244 279q37 47 98 47q6 0 42 -11t56 -44t21 -68q0 -80 -59 -108l-328 -168zM100 754v196h226l77 -78v-872h-219v754h-84z" />
<glyph unicode="&#xee;" horiz-adv-x="546" d="M-47 1157l197 305h180l196 -305l-96 -59l-190 221l-191 -221zM100 754v196h226l77 -78v-872h-219v754h-84z" />
<glyph unicode="&#xef;" horiz-adv-x="546" d="M-84 1266q0 61 42 105t103 44t105 -44t45 -105q0 -60 -44 -104q-43 -44 -105 -44t-104 44t-42 104zM100 754v196h226l77 -78v-872h-219v754h-84zM356 1266q0 61 42 105t104 44t105 -44q44 -44 44 -105q0 -60 -44 -104t-105 -44t-104 43q-42 44 -42 105z" />
<glyph unicode="&#xf0;" d="M72 475q0 209 147 352t356 144l-83 135l-175 -111l-81 135l174 109l-156 254h274l80 -131l170 104l82 -133l-170 -104l275 -445q100 -164 100 -309q0 -209 -146 -353q-147 -144 -351 -144t-350 144t-146 353zM295 475q1 -117 79 -202t194 -85t195 85t79 202t-78 201 t-196 84t-196 -84t-77 -201z" />
<glyph unicode="&#xf1;" horiz-adv-x="1134" d="M102 754v196h177l88 -88q133 106 280 106t245 -98t99 -297v-573h-223v573q0 89 -47 137t-127 48t-134 -44t-54 -110v-604h-220v754h-84zM166 1210q5 20 28 57q74 121 218 124q58 0 164 -44t147 -44t69 17t39 36l11 16l108 -61q-5 -21 -28 -60q-74 -128 -209 -131 q-70 0 -181 45q-112 45 -152 45t-68 -17t-33 -36l-9 -18z" />
<glyph unicode="&#xf2;" d="M72 475q0 209 146 353t350 143q204 1 350 -143t147 -353q0 -209 -146 -353q-147 -144 -351 -144t-350 144t-146 353zM295 475q1 -117 79 -202t194 -85t195 85t79 202t-78 201t-196 84t-196 -84t-77 -201zM336 1374q0 80 78 109q35 10 43 10q61 0 98 -47 q101 -119 242 -279l-72 -73q-297 154 -328 168q-61 32 -61 112z" />
<glyph unicode="&#xf3;" d="M72 475q0 209 146 353t350 143q204 1 350 -143t147 -353q0 -209 -146 -353q-147 -144 -351 -144t-350 144t-146 353zM295 475q1 -117 79 -202t194 -85t195 85t79 202t-78 201t-196 84t-196 -84t-77 -201zM338 1167q23 25 244 279q37 47 98 47q8 0 43 -11t55 -44t21 -68 q0 -80 -60 -108l-327 -168z" />
<glyph unicode="&#xf4;" d="M72 475q0 209 146 353t350 143q204 1 350 -143t147 -353q0 -209 -146 -353q-147 -144 -351 -144t-350 144t-146 353zM281 1157l196 305h180l197 -305l-96 -59l-191 221l-190 -221zM295 475q1 -117 79 -202t194 -85t195 85t79 202t-78 201t-196 84t-196 -84t-77 -201z" />
<glyph unicode="&#xf5;" d="M72 475q0 209 146 353t350 143q204 1 350 -143t147 -353q0 -209 -146 -353q-147 -144 -351 -144t-350 144t-146 353zM178 1210q5 20 32 63q69 115 217 117q55 0 161 -43q106 -44 164 -44t102 69l109 -61q-5 -18 -28 -59q-75 -130 -196 -131q-85 -1 -195 44t-151 45 t-69 -17t-33 -36l-8 -18zM295 475q1 -117 79 -202t194 -85t195 85t79 202t-78 201t-196 84t-196 -84t-77 -201z" />
<glyph unicode="&#xf6;" d="M72 475q0 209 146 353t350 143q204 1 350 -143t147 -353q0 -209 -146 -353q-147 -144 -351 -144t-350 144t-146 353zM199 1266q0 61 42 105t103 44q62 0 106 -44t44 -105q0 -60 -44 -104t-106 -44t-103 44q-42 44 -42 104zM295 475q1 -117 79 -202t194 -85t195 85t79 202 t-78 201t-196 84t-196 -84t-77 -201zM639 1266q0 61 42 105t103 44q62 0 106 -44t44 -105q0 -60 -44 -104t-106 -44t-103 44q-42 44 -42 104z" />
<glyph unicode="&#xf7;" horiz-adv-x="1093" d="M102 485v199h889v-199h-889zM395 257q0 63 43 107q42 44 106 44t108 -44t44 -106t-44 -107t-107 -45t-107 44t-43 107zM395 911q0 63 43 107q42 44 106 45q64 0 108 -44q44 -43 44 -107t-44 -108t-107 -44t-107 44q-43 44 -43 107z" />
<glyph unicode="&#xf8;" d="M72 0l125 145q-125 141 -125 340t146 343t351 143q145 0 265 -78l47 57h182l-125 -145q127 -141 127 -340t-146 -343t-350 -145q-145 0 -268 78l-47 -55h-182zM295 490q0 -102 45 -175l352 414q-55 31 -123 31q-119 0 -197 -84t-77 -186zM440 221q61 -33 129 -33 q115 0 194 85t79 189t-47 175z" />
<glyph unicode="&#xf9;" horiz-adv-x="1107" d="M143 414v536h224v-536q0 -109 53 -167q53 -59 135 -59t135 58t53 168v536h222v-536q0 -203 -119 -320t-291 -117t-292 117t-120 320zM324 1374q0 80 77 109q37 10 43 10q61 0 99 -47q100 -119 241 -279l-71 -73q-297 154 -328 168q-61 32 -61 112z" />
<glyph unicode="&#xfa;" horiz-adv-x="1107" d="M143 414v536h224v-536q0 -109 53 -167q53 -59 135 -59t135 58t53 168v536h222v-536q0 -203 -119 -320t-291 -117t-292 117t-120 320zM324 1167q23 25 243 279q37 47 99 47q6 0 42 -11t56 -44t20 -68q0 -80 -59 -108l-328 -168z" />
<glyph unicode="&#xfb;" horiz-adv-x="1107" d="M143 414v536h224v-536q0 -109 53 -167q53 -59 135 -59t135 58t53 168v536h222v-536q0 -203 -119 -320t-291 -117t-292 117t-120 320zM268 1157l197 305h180l197 -305l-97 -59l-190 221l-190 -221z" />
<glyph unicode="&#xfc;" horiz-adv-x="1107" d="M143 414v536h224v-536q0 -109 53 -167q53 -59 135 -59t135 58t53 168v536h222v-536q0 -203 -119 -320t-291 -117t-292 117t-120 320zM197 1266q0 61 42 105t103 44t105 -44q45 -44 45 -105q0 -60 -44 -104t-106 -44q-61 0 -103 44t-42 104zM637 1266q0 61 42 105t103 44 q62 0 106 -44t44 -105q0 -60 -44 -104t-106 -44t-103 44q-42 44 -42 104z" />
<glyph unicode="&#xfd;" horiz-adv-x="1073" d="M31 950h221l287 -743h22l258 743h223l-518 -1462h-223l180 512h-90zM338 1167q23 25 244 279q37 47 98 47q8 0 43 -11t55 -44t21 -68q0 -80 -60 -108l-327 -168z" />
<glyph unicode="&#xfe;" horiz-adv-x="1239" d="M164 -512v1974l74 74h145v-678q115 115 276 115q203 -1 345 -147t143 -351q0 -205 -142 -351t-346 -147q-164 0 -276 113v-602h-219zM364 475q0 -121 80 -204t199 -83t201 83t82 204t-82 204t-201 83t-199 -83t-80 -204z" />
<glyph unicode="&#xff;" horiz-adv-x="1073" d="M31 950h221l287 -743h22l258 743h223l-518 -1462h-223l180 512h-90zM158 1266q0 61 44 106t104 45t104 -45t45 -106q0 -60 -44 -104q-45 -44 -105 -44t-104 44t-44 104zM598 1266q0 61 44 106t104 45t104 -45t45 -106q0 -60 -44 -104q-45 -44 -105 -44t-104 44t-44 104z " />
<glyph unicode="&#x152;" horiz-adv-x="2056" d="M92 731q0 324 224 543t540 219q111 0 211 -31h877v-221h-648v-373h602v-221h-602v-424h648v-223h-875q-104 -29 -213 -29q-315 0 -540 218q-224 218 -224 542zM342 731q0 -219 146 -377q147 -157 368 -157q111 0 211 45v979q-100 45 -211 45q-222 0 -368 -158t-146 -377z " />
<glyph unicode="&#x153;" horiz-adv-x="1767" d="M72 475q0 209 146 352t351 143t355 -149q135 152 333 152q199 0 321 -140t128 -335l-82 -80h-610q10 -104 81 -170t151 -66q149 0 235 133l178 -98q-59 -102 -163 -171t-236 -69q-199 0 -338 150q-142 -150 -350 -150q-208 1 -354 145t-146 353zM295 475q1 -117 79 -202 t194 -85t195 85t79 202t-78 201t-196 84t-196 -84t-77 -201zM1024 592h463q-11 80 -75 133t-151 53t-153 -52t-84 -134z" />
<glyph unicode="&#x178;" horiz-adv-x="1341" d="M20 1462h275l377 -612l375 612h274l-533 -852v-610h-235v610zM299 1778q0 61 42 105t103 44q62 0 106 -44t44 -105q0 -60 -44 -104t-106 -44t-103 44q-42 44 -42 104zM739 1778q0 61 42 105q41 44 103 44t106 -44t44 -105q0 -60 -44 -104t-105 -44t-104 43 q-42 44 -42 105z" />
<glyph unicode="&#x2c6;" horiz-adv-x="591" d="M8 1174l197 305h180l197 -305l-97 -60l-190 221l-191 -221z" />
<glyph unicode="&#x2dc;" horiz-adv-x="882" d="M57 1210q4 16 27 55q24 39 49 63t71 43t102 19t162 -43q106 -44 146 -44q42 0 70 17t37 36l12 16l109 -61q-6 -22 -32 -66q-70 -123 -214 -125q-60 0 -170 45t-153 45q-41 0 -69 -17t-36 -36l-6 -18z" />
<glyph unicode="&#x2000;" horiz-adv-x="974" />
<glyph unicode="&#x2001;" horiz-adv-x="1948" />
<glyph unicode="&#x2002;" horiz-adv-x="974" />
<glyph unicode="&#x2003;" horiz-adv-x="1948" />
<glyph unicode="&#x2004;" horiz-adv-x="649" />
<glyph unicode="&#x2005;" horiz-adv-x="487" />
<glyph unicode="&#x2006;" horiz-adv-x="324" />
<glyph unicode="&#x2007;" horiz-adv-x="324" />
<glyph unicode="&#x2008;" horiz-adv-x="243" />
<glyph unicode="&#x2009;" horiz-adv-x="389" />
<glyph unicode="&#x200a;" horiz-adv-x="108" />
<glyph unicode="&#x2010;" horiz-adv-x="847" d="M127 457v196h594v-196h-594z" />
<glyph unicode="&#x2011;" horiz-adv-x="847" d="M127 457v196h594v-196h-594z" />
<glyph unicode="&#x2012;" horiz-adv-x="847" d="M127 457v196h594v-196h-594z" />
<glyph unicode="&#x2013;" horiz-adv-x="1150" d="M82 457v196h987v-196h-987z" />
<glyph unicode="&#x2014;" horiz-adv-x="1843" d="M82 457v196h1679v-196h-1679z" />
<glyph unicode="&#x2018;" horiz-adv-x="462" d="M0 995l285 541h178l-205 -541h-258z" />
<glyph unicode="&#x2019;" horiz-adv-x="362" d="M0 995l207 541h256l-285 -541h-178z" />
<glyph unicode="&#x201a;" horiz-adv-x="432" d="M-31 -338l207 541h256l-285 -541h-178z" />
<glyph unicode="&#x201c;" horiz-adv-x="739" d="M0 999l285 541h178l-207 -541h-256zM365 999l284 541h178l-206 -541h-256z" />
<glyph unicode="&#x201d;" horiz-adv-x="698" d="M0 999l207 541h256l-285 -541h-178zM365 999l206 541h256l-284 -541h-178z" />
<glyph unicode="&#x201e;" horiz-adv-x="798" d="M-31 -338l207 541h256l-285 -541h-178zM336 -338l207 541h256l-285 -541h-178z" />
<glyph unicode="&#x2022;" horiz-adv-x="702" d="M102 531q0 103 73 177t176 74t176 -74t73 -178q0 -102 -73 -175t-176 -73t-176 74q-73 72 -73 175z" />
<glyph unicode="&#x2026;" horiz-adv-x="1755" d="M102 131q0 66 48 114t112 48q66 0 114 -48t48 -114t-48 -113t-114 -47t-113 47t-47 113zM717 131q0 66 47 114t113 48q65 0 113 -48t48 -114t-48 -113t-114 -47t-112 47q-47 47 -47 113zM1331 131q0 66 47 114t113 48t114 -48t48 -114t-48 -113t-114 -47t-113 47t-47 113 z" />
<glyph unicode="&#x202f;" horiz-adv-x="389" />
<glyph unicode="&#x2039;" horiz-adv-x="659" d="M61 516l363 424h154v-68l-246 -356l246 -356v-68h-154z" />
<glyph unicode="&#x203a;" horiz-adv-x="659" d="M82 92v68l246 356l-246 356v68h154l362 -424l-362 -424h-154z" />
<glyph unicode="&#x205f;" horiz-adv-x="487" />
<glyph unicode="&#x20ac;" horiz-adv-x="1232" d="M92 494v168h84v77h-84v170h107q51 233 220 379t462 146q160 0 290 -54l-94 -200q-70 37 -196 37q-352 0 -451 -308h397v-170h-426v-77h426v-168h-397q96 -305 451 -306q119 0 204 27l82 -192q-131 -51 -286 -52q-291 1 -461 145t-221 378h-107z" />
<glyph unicode="&#x2122;" horiz-adv-x="1617" d="M41 1303v159h614v-159h-225v-695h-166v695h-223zM705 608v854h151l264 -432l262 432h154v-854h-166v514l-158 -256h-184l-158 256v-514h-165z" />
<glyph unicode="&#x25fc;" horiz-adv-x="950" d="M0 0v950h950v-950h-950z" />
</font>
</defs>
</svg>
